<svg id="Layer_1" data-name="Layer 1" xmlns="http://www.w3.org/2000/svg" viewBox="0 0 91 91"><defs><style>.cls-1{fill:#fff;stroke:#065e68;stroke-miterlimit:10;stroke-width:3px;}.cls-2{fill:#065e68;}</style></defs><circle class="cls-1" cx="45.5" cy="45.5" r="44"/><path class="cls-2" d="M303.71,398.61l.48.49a23.9,23.9,0,0,1,5.54,9.18,24.44,24.44,0,0,1,.9,3.66,32.66,32.66,0,0,1-6.12,3.05h0c-.73.27-1.47.51-2.21.72l-1.8,1.8,25.27,25.27a2.12,2.12,0,0,1,0,3l-3.3,3.29a2.12,2.12,0,0,1-3,0l-25.26-25.26-1.8,1.8c-.21.74-.45,1.48-.73,2.2h0a31.48,31.48,0,0,1-3.05,6.12A23.28,23.28,0,0,1,285,433a23.92,23.92,0,0,1-9.17-5.54l-.5-.48-.32-.33-.41-.45a23.94,23.94,0,0,1-4.59-7.51,23.62,23.62,0,0,1-1.09-3.75,31.44,31.44,0,0,1,6.58-3.36c.8-.3,1.6-.56,2.42-.79l9.63-9.64c.23-.81.49-1.61.79-2.41a32,32,0,0,1,3.36-6.59,25.22,25.22,0,0,1,3.76,1.1,24.16,24.16,0,0,1,7.5,4.58l.45.42Z" transform="translate(-252.14 -375.44)"/></svg>